<?xml version="1.0" standalone="no"?>
<!DOCTYPE svg PUBLIC "-//W3C//DTD SVG 20010904//EN"
 "http://www.w3.org/TR/2001/REC-SVG-20010904/DTD/svg10.dtd">
<svg version="1.0" xmlns="http://www.w3.org/2000/svg"
 width="400.000000pt" height="400.000000pt" viewBox="0 0 400.000000 400.000000"
 preserveAspectRatio="xMidYMid meet">
<metadata>
Created by potrace 1.11, written by Peter Selinger 2001-2013
</metadata>
<g transform="translate(0.000000,400.000000) scale(0.100000,-0.100000)"
fill="#000000" stroke="none">
<path d="M0 2000 l0 -2000 2000 0 2000 0 0 2000 0 2000 -2000 0 -2000 0 0
-2000z m1960 1040 l0 -280 40 0 40 0 0 280 0 280 970 0 970 0 0 -280 0 -280
-49 0 -48 0 -63 168 c-35 92 -69 179 -77 195 l-14 27 -254 0 -255 0 0 -860 c0
-939 -2 -914 57 -943 15 -8 79 -27 141 -42 l112 -27 0 -44 0 -44 -362 -1 -363
0 -32 -67 c-45 -92 -99 -151 -202 -220 -113 -76 -264 -134 -453 -176 l-28 -6
0 -215 0 -215 -85 0 -85 0 0 204 0 203 -137 6 c-148 6 -253 23 -390 63 -104
30 -263 102 -263 119 0 11 43 229 55 282 l5 23 -360 0 -360 0 0 43 0 44 127
33 c88 23 134 41 150 56 l23 23 0 881 0 880 -243 0 c-220 0 -245 -2 -260 -18
-9 -9 -45 -96 -81 -192 l-64 -175 -51 -3 -51 -3 0 280 0 281 970 0 970 0 0
-280z"/>
<path d="M1200 2623 l1 -528 28 55 c90 174 294 294 585 345 49 8 93 15 97 15
5 0 9 56 9 125 l0 125 -29 0 c-28 0 -30 4 -91 168 -35 92 -69 179 -77 195
l-14 27 -254 0 -255 0 0 -527z"/>
<path d="M2287 3132 c-9 -9 -45 -96 -81 -192 -59 -161 -66 -175 -90 -178 l-26
-3 0 -118 0 -118 83 -7 c155 -14 299 -51 470 -123 96 -40 108 -48 104 -67 -3
-11 -20 -92 -38 -178 l-32 -158 -28 0 c-19 0 -60 23 -126 71 -147 107 -327
209 -410 234 l-23 6 0 -245 c0 -224 1 -245 18 -250 9 -2 78 -17 152 -31 74
-15 164 -36 200 -47 139 -43 264 -130 310 -217 19 -36 19 -28 20 802 l0 837
-243 0 c-220 0 -245 -2 -260 -18z"/>
<path d="M1818 2271 c-114 -37 -168 -94 -168 -178 0 -126 74 -200 248 -248
l22 -6 0 225 0 226 -22 -1 c-13 0 -48 -8 -80 -18z"/>
<path d="M1200 1645 c0 -299 -5 -290 198 -340 l112 -27 0 -44 0 -43 -97 -3
-98 -3 90 -55 c185 -112 370 -194 483 -214 l32 -5 0 267 0 267 -133 29 c-159
35 -246 64 -329 108 -85 45 -191 150 -224 222 -14 31 -27 56 -30 56 -2 0 -4
-97 -4 -215z"/>
<path d="M2090 1169 l0 -241 38 7 c116 21 202 95 222 188 28 136 -35 226 -189
271 -30 9 -58 16 -63 16 -4 0 -8 -109 -8 -241z"/>
</g>
</svg>
